# xmcd
#
# Track frame offsets: 
#        150
#        20152
#        37276
#        54964
#        74693
#        93672
#        115420
#        135856
#        151027
#        165897
#        171320
#        189036
#        202457
#        219072
#        234443
#        252674
#        273620
#        292150
#        313153
#
# Disc length: 4573 seconds
#
# Revision: 2
# Processed by: cddbd v1.5.2PL0 Copyright (c) Steve Scherf et al.
# Submitted via: ExactAudioCopy v1.0b3
#
DISCID=1f11db13
DTITLE=Bashung - Osez - Vol. I
DYEAR=2010
DGENRE=Pop
TTITLE0=La nuit je mens
TTITLE1=Sur un trapèze
TTITLE2=Sommes-nous
TTITLE3=Faites monter
TTITLE4=Ma petite entreprise
TTITLE5=Madame rêve
TTITLE6=Malaxe
TTITLE7=Résidents de la République
TTITLE8=Vertige de l'amour
TTITLE9=Les petits enfants
TTITLE10=Gaby oh Gaby
TTITLE11=Osez Joséphine
TTITLE12=Je t'ai manqué
TTITLE13=Volutes (remix)
TTITLE14=S.O.S amor
TTITLE15=L'apiculteur
TTITLE16=Bijou bijou
TTITLE17=Angora
TTITLE18=Data
EXTD=
EXTT0=
EXTT1=
EXTT2=
EXTT3=
EXTT4=
EXTT5=
EXTT6=
EXTT7=
EXTT8=
EXTT9=
EXTT10=
EXTT11=
EXTT12=
EXTT13=
EXTT14=
EXTT15=
EXTT16=
EXTT17=
EXTT18=
PLAYORDER=
